<?xml version="1.0" encoding="utf-8"?>
<!-- Generator: Adobe Illustrator 25.4.1, SVG Export Plug-In . SVG Version: 6.00 Build 0)  -->
<svg version="1.1" id="图层1" xmlns="http://www.w3.org/2000/svg" xmlns:xlink="http://www.w3.org/1999/xlink" x="0px" y="0px" viewBox="0 0 841.89 595.28" style="enable-background:new 0 0 841.89 595.28;" xml:space="preserve">
	<style type="text/css">
		.st0 {
			fill: #12507b;
		}

		.st1 {
			fill: #EAEDF0;
		}

		.st2 {
			font-family: 'UbuntuMono-Bold';
		}

		.st3 {
			font-size: 179.5238px;
		}
</style>
	<g>
		<path class="st0" d="M322,425.98H146.25c-37.42,0-68.03-30.61-68.03-68.03V182.2c0-37.42,30.61-68.03,68.03-68.03h172.91
		c38.98,0,70.87,31.89,70.87,70.87v172.91C390.03,395.36,359.42,425.98,322,425.98z" />
		<text transform="matrix(1 0 0 1 99.4841 322.1446)" class="st1 st2 st3">SEA</text>
	</g>
	<g>
		<path class="st0" d="M723.49,425.98H547.74c-37.42,0-68.03-30.61-68.03-68.03V182.2c0-37.42,30.61-68.03,68.03-68.03h172.91
		c38.98,0,70.87,31.89,70.87,70.87v172.91C791.52,395.36,760.91,425.98,723.49,425.98z" />
		<g>
			<path class="st1" d="M542.62,305.99c3.71,0,6.79-0.39,9.25-1.17c2.45-0.78,4.4-1.85,5.83-3.23c1.44-1.37,2.42-2.93,2.96-4.67
			c0.54-1.73,0.81-3.5,0.81-5.3c0-2.27-0.66-4.31-1.97-6.1c-1.32-1.79-2.99-3.38-5.03-4.76c-2.04-1.37-4.31-2.63-6.82-3.77
			c-2.51-1.14-5.03-2.18-7.54-3.14c-3.35-1.19-6.82-2.57-10.41-4.13c-3.59-1.55-6.85-3.53-9.78-5.92c-2.93-2.39-5.36-5.35-7.27-8.89
			c-1.92-3.53-2.87-7.93-2.87-13.2c0-10.41,3.38-18.55,10.14-24.42c6.76-5.86,16.07-8.8,27.92-8.8c6.82,0,12.77,0.78,17.86,2.33
			c5.09,1.56,9.36,3.29,12.84,5.21l-6.46,17.05c-2.99-1.67-6.31-3.11-9.96-4.31c-3.65-1.19-7.87-1.79-12.66-1.79
			c-11.73,0-17.59,4.25-17.59,12.75c0,2.15,0.6,4.04,1.8,5.65c1.19,1.62,2.72,3.05,4.58,4.31c1.85,1.26,3.95,2.36,6.28,3.32
			c2.33,0.96,4.64,1.86,6.91,2.69c3.47,1.32,7.09,2.78,10.86,4.4c3.77,1.62,7.24,3.77,10.41,6.46c3.17,2.69,5.77,6.04,7.81,10.05
			c2.03,4.01,3.05,9.07,3.05,15.17c0,10.41-3.38,18.46-10.14,24.15c-6.76,5.69-17.03,8.53-30.79,8.53c-9.22,0-16.58-0.99-22.08-2.96
			c-5.51-1.98-9.64-3.8-12.39-5.48l6.46-17.95c3.23,1.92,7.09,3.71,11.58,5.39C530.68,305.15,536.16,305.99,542.62,305.99z" />
			<path class="st1" d="M602.04,322.14V211.02h67.32v18.31h-45.24v24.95h39.32v18.31h-39.32v31.24h49.19v18.31H602.04z" />
			<path class="st1" d="M744.94,322.14l-5.21-25.67h-29.62l-5.03,25.67h-22.98c5.27-21.9,10.59-41.86,15.98-59.87
			c5.39-18.01,10.59-35.1,15.62-51.25h24.06c5.27,16.28,10.5,33.54,15.71,51.79c5.21,18.25,10.26,38.03,15.17,59.33H744.94z
			 M725.2,232.56c-1.2,4.19-2.31,8.17-3.32,11.94c-1.02,3.77-1.98,7.48-2.87,11.13c-0.9,3.65-1.74,7.33-2.51,11.04
			c-0.78,3.71-1.53,7.54-2.24,11.49h21.72c-0.72-3.95-1.44-7.78-2.15-11.49c-0.72-3.71-1.53-7.39-2.42-11.04
			c-0.9-3.65-1.86-7.36-2.87-11.13C727.5,240.73,726.39,236.75,725.2,232.56z" />
		</g>
	</g>
</svg>