<?xml version="1.0" encoding="utf-8"?>
<!-- Generator: Adobe Illustrator 26.0.1, SVG Export Plug-In . SVG Version: 6.00 Build 0)  -->
<svg version="1.1" id="图层_1" xmlns="http://www.w3.org/2000/svg" xmlns:xlink="http://www.w3.org/1999/xlink" x="0px" y="0px"
	 viewBox="0 0 311.8 311.8" style="enable-background:new 0 0 311.8 311.8;" xml:space="preserve">
<style type="text/css">
	.st0{fill:#114D77;}
	.st1{fill:#AD1D34;}
	.st2{fill:#EAECEF;}
</style>
<g>
	<path class="st0" d="M157.3,311.8h-2.8C69.5,311.8,0,242.3,0,157.3l0-2.8C0,69.5,69.5,0,154.5,0h0C241,0,311.8,70.8,311.8,157.3v0
		C311.8,242.3,242.3,311.8,157.3,311.8z"/>
	<polygon class="st1" points="155.9,63.2 169.3,90.4 199.2,94.7 177.6,115.9 182.7,145.7 155.9,131.6 129.1,145.7 134.2,115.9 
		112.6,94.7 142.5,90.4 	"/>
	<g>
		<g>
			<path class="st2" d="M62.9,201.9c3.7,0,6.8-0.4,9.2-1.2c2.5-0.8,4.4-1.9,5.8-3.2c1.4-1.4,2.4-2.9,3-4.7c0.5-1.7,0.8-3.5,0.8-5.3
				c0-2.3-0.7-4.3-2-6.1c-1.3-1.8-3-3.4-5-4.8c-2-1.4-4.3-2.6-6.8-3.8c-2.5-1.1-5-2.2-7.5-3.1c-3.4-1.2-6.8-2.6-10.4-4.1
				c-3.6-1.6-6.9-3.5-9.8-5.9c-2.9-2.4-5.4-5.4-7.3-8.9c-1.9-3.5-2.9-7.9-2.9-13.2c0-10.4,3.4-18.5,10.1-24.4
				c6.8-5.9,16.1-8.8,27.9-8.8c6.8,0,12.8,0.8,17.9,2.3c5.1,1.6,9.4,3.3,12.8,5.2l-6.5,17.1c-3-1.7-6.3-3.1-10-4.3
				c-3.7-1.2-7.9-1.8-12.7-1.8c-11.7,0-17.6,4.2-17.6,12.7c0,2.2,0.6,4,1.8,5.7c1.2,1.6,2.7,3.1,4.6,4.3c1.9,1.3,3.9,2.4,6.3,3.3
				c2.3,1,4.6,1.9,6.9,2.7c3.5,1.3,7.1,2.8,10.9,4.4c3.8,1.6,7.2,3.8,10.4,6.5c3.2,2.7,5.8,6,7.8,10.1c2,4,3.1,9.1,3.1,15.2
				c0,10.4-3.4,18.5-10.1,24.1c-6.8,5.7-17,8.5-30.8,8.5c-9.2,0-16.6-1-22.1-3c-5.5-2-9.6-3.8-12.4-5.5l6.5-18
				c3.2,1.9,7.1,3.7,11.6,5.4C51,201.1,56.4,201.9,62.9,201.9z"/>
			<path class="st2" d="M116.6,176.6c0-7.4,1.1-13.9,3.4-19.6c2.3-5.6,5.3-10.3,9-14.1c3.7-3.8,8-6.6,12.7-8.5
				c4.8-1.9,9.7-2.9,14.7-2.9c12.4,0,21.9,3.7,28.4,11s9.7,18.1,9.7,32.2c0,1.4,0,2.9-0.1,4.5c-0.1,1.6-0.2,2.8-0.3,3.8h-54.8
				c0,5.5,2.3,9.8,6.8,13c4.5,3.2,10.4,4.8,17.6,4.8c4.4,0,8.6-0.5,12.7-1.4c4-1,7.4-1.9,10.1-2.9l3.1,18.9
				c-3.8,1.3-7.9,2.4-12.2,3.3c-4.3,0.9-9.2,1.3-14.5,1.3c-7.2,0-13.6-0.9-19.3-2.8c-5.7-1.9-10.5-4.6-14.5-8.3
				c-4-3.6-7.1-8.2-9.2-13.6S116.6,183.8,116.6,176.6z M173.1,167.8c0-2.3-0.3-4.5-0.9-6.6c-0.6-2.1-1.6-4-2.9-5.7c-1.3-1.7-3-3-5-4
				c-2-1-4.5-1.5-7.5-1.5c-2.9,0-5.4,0.5-7.5,1.4c-2.1,1-3.8,2.3-5.2,3.9c-1.4,1.7-2.5,3.6-3.2,5.7c-0.8,2.2-1.3,4.4-1.5,6.6H173.1z
				"/>
			<path class="st2" d="M243.9,131.6c6.9,0,12.7,0.8,17.3,2.4c4.6,1.6,8.3,3.9,11,6.8c2.8,2.9,4.7,6.5,5.9,10.8
				c1.2,4.2,1.8,9,1.8,14.3v50.3c-3.2,0.7-8,1.6-14.4,2.5c-6.3,1-13.5,1.4-21.4,1.4c-5.4,0-10.3-0.5-14.6-1.4
				c-4.4-1-8.1-2.5-11.2-4.8c-3.1-2.2-5.5-5.1-7.2-8.6c-1.7-3.5-2.5-7.9-2.5-13c0-4.9,1-9,2.9-12.4c1.9-3.3,4.5-6,7.7-8.1
				c3.2-2,6.9-3.5,11.1-4.4c4.2-0.9,8.6-1.3,13.1-1.3c5.7,0,10.8,0.5,15.3,1.4v-2.7c0-4.2-1.3-7.7-3.9-10.5
				c-2.6-2.8-7.2-4.2-13.6-4.2c-4.2,0-8.2,0.3-12.1,0.9c-3.9,0.6-7,1.3-9.4,2.2l-3.1-17.8c2.8-1,6.6-1.8,11.7-2.6
				C233.3,132,238.5,131.6,243.9,131.6z M245.8,202.3c2.4,0,4.7,0,7-0.1c2.3-0.1,4.2-0.2,5.9-0.4v-19.4c-1.4-0.2-3.2-0.4-5.2-0.6
				c-2-0.2-3.9-0.3-5.6-0.3c-2.3,0-4.5,0.2-6.6,0.4c-2.2,0.3-4,0.8-5.7,1.5c-1.6,0.7-2.9,1.7-3.9,3.1c-1,1.3-1.4,3.1-1.4,5.2
				c0,3.8,1.4,6.6,4.3,8.2C237.6,201.5,241.3,202.3,245.8,202.3z"/>
		</g>
	</g>
</g>
</svg>
