<svg t="1605178370649" class="icon" viewBox="0 0 1024 1024" version="1.1"
    xmlns="http://www.w3.org/2000/svg" p-id="3287" width="200" height="200">
    <path d="M512 1005.037c-272.308 0-493.037-220.729-493.037-493.037S239.692 18.963 512 18.963 1005.037 239.692 1005.037 512 784.308 1005.037 512 1005.037z m0-37.926c251.354 0 455.111-203.757 455.111-455.111S763.354 56.889 512 56.889 56.889 260.646 56.889 512 260.646 967.111 512 967.111z m-75.852-170.667c-104.296 0-189.63-85.333-189.63-189.63 0-11.377-7.585-18.962-18.962-18.962s-18.963 7.585-18.963 18.963c0 125.155 102.4 227.555 227.555 227.555 11.378 0 18.963-7.585 18.963-18.963s-7.585-18.963-18.963-18.963z" fill="#0f60ab" p-id="3288"></path>
</svg>